<mxfile host="app.diagrams.net" modified="2023-06-04T21:18:40.151Z" agent="Mozilla/5.0 (Windows NT 10.0; Win64; x64) AppleWebKit/537.36 (KHTML, like Gecko) Chrome/113.0.0.0 Safari/537.36" version="21.3.7" etag="0HUgAv3P7THD-FZZnJHG" type="device">
  <diagram id="2qF3wWJOwKFG08dx_jes" name="Strona-1">
    <mxGraphModel dx="1993" dy="1089" grid="1" gridSize="10" guides="1" tooltips="1" connect="1" arrows="1" fold="1" page="0" pageScale="1" pageWidth="827" pageHeight="1169" background="none" math="0" shadow="0">
      <root>
        <mxCell id="0" />
        <mxCell id="1" parent="0" />
        <mxCell id="node0" value="&lt;p style=&quot;margin:0px;margin-top:4px;text-align:center;&quot;&gt;&lt;b&gt;Answer&lt;/b&gt;&lt;/p&gt;&lt;hr size=&quot;1&quot;/&gt;&lt;p style=&quot;margin:0 0 0 4px;line-height:1.6;&quot;&gt;- textAnswer: String&lt;br/&gt;- booleanAnswer: boolean&lt;br/&gt;- multipleChoiceAnswer: int&lt;/p&gt;&lt;hr size=&quot;1&quot;/&gt;&lt;p style=&quot;margin:0 0 0 4px;line-height:1.6;&quot;&gt;+ isBooleanAnswer(): boolean&lt;br/&gt;+ getTextAnswer(): String&lt;br/&gt;+ getMultipleChoiceAnswer(): int&lt;/p&gt;" style="verticalAlign=top;align=left;overflow=fill;fontSize=14;fontFamily=Helvetica;html=1;rounded=0;shadow=0;comic=0;labelBackgroundColor=none;strokeWidth=1;" parent="1" vertex="1">
          <mxGeometry x="537" y="-344" width="211" height="165" as="geometry" />
        </mxCell>
        <mxCell id="node3" value="&lt;p style=&quot;margin:0px;margin-top:4px;text-align:center;&quot;&gt;&lt;b&gt;AnswerLog&lt;/b&gt;&lt;/p&gt;&lt;hr size=&quot;1&quot;/&gt;&lt;p style=&quot;margin:0 0 0 4px;line-height:1.6;&quot;&gt;- isCorrect: Boolean&lt;br/&gt;- answerDate: Date&lt;br/&gt;- flashcardID: int&lt;/p&gt;&lt;hr size=&quot;1&quot;/&gt;&lt;p style=&quot;margin:0 0 0 4px;line-height:1.6;&quot;&gt;+ getFlashcardID(): int&lt;br/&gt;+ getAnswerDate(): Date&lt;br/&gt;+ setAnswerDate(Date): void&lt;br/&gt;+ getCorrect(): Boolean&lt;br/&gt;+ setFlashcardID(int): void&lt;br/&gt;+ setCorrect(Boolean): void&lt;/p&gt;" style="verticalAlign=top;align=left;overflow=fill;fontSize=14;fontFamily=Helvetica;html=1;rounded=0;shadow=0;comic=0;labelBackgroundColor=none;strokeWidth=1;" parent="1" vertex="1">
          <mxGeometry x="1470" y="370" width="185" height="231" as="geometry" />
        </mxCell>
        <mxCell id="izyoNwwnXv2XFWCl0Jen-4" style="edgeStyle=orthogonalEdgeStyle;rounded=0;orthogonalLoop=1;jettySize=auto;html=1;dashed=1;endArrow=open;endFill=0;endSize=12;" edge="1" parent="1" source="node4" target="node15">
          <mxGeometry relative="1" as="geometry">
            <Array as="points">
              <mxPoint x="960" y="454" />
              <mxPoint x="960" y="340" />
            </Array>
          </mxGeometry>
        </mxCell>
        <mxCell id="izyoNwwnXv2XFWCl0Jen-5" style="edgeStyle=orthogonalEdgeStyle;rounded=0;orthogonalLoop=1;jettySize=auto;html=1;dashed=1;endArrow=open;endFill=0;endSize=12;" edge="1" parent="1" source="node4" target="node5">
          <mxGeometry relative="1" as="geometry">
            <Array as="points">
              <mxPoint x="960" y="454" />
              <mxPoint x="960" y="716" />
            </Array>
          </mxGeometry>
        </mxCell>
        <mxCell id="izyoNwwnXv2XFWCl0Jen-6" style="edgeStyle=orthogonalEdgeStyle;rounded=0;orthogonalLoop=1;jettySize=auto;html=1;dashed=1;endArrow=open;endFill=0;endSize=12;" edge="1" parent="1" source="node4" target="node3">
          <mxGeometry relative="1" as="geometry" />
        </mxCell>
        <mxCell id="node4" value="&lt;p style=&quot;margin:0px;margin-top:4px;text-align:center;&quot;&gt;&lt;b&gt;DBManager&lt;/b&gt;&lt;/p&gt;&lt;hr size=&quot;1&quot;/&gt;&lt;p style=&quot;margin:0 0 0 4px;line-height:1.6;&quot;&gt;- instance: DBManager&lt;/p&gt;&lt;hr size=&quot;1&quot;/&gt;&lt;p style=&quot;margin:0 0 0 4px;line-height:1.6;&quot;&gt;+ getDecks(): List&amp;lt;Deck&amp;gt;&lt;br/&gt;+ editDeck(Deck): void&lt;br/&gt;+ editFlashcardAnswer(AnswerLog): void&lt;br/&gt;+ removeFlashcardAnswer(AnswerLog): void&lt;br/&gt;+ addFlashcardAnswer(AnswerLog): void&lt;br/&gt;+ removeDeck(Deck): void&lt;br/&gt;+ addFlashcard(Flashcard): void&lt;br/&gt;+ getCategories(): List&amp;lt;String&amp;gt;&lt;br/&gt;+ removeCategory(String): void&lt;br/&gt;+ getFlashcardAnswers(): List&amp;lt;AnswerLog&amp;gt;&lt;br/&gt;+ addDeck(Deck): void&lt;br/&gt;+ getInstance(): DBManager&lt;br/&gt;+ removeFlashcard(Flashcard): void&lt;br/&gt;+ addCategory(String): void&lt;br/&gt;+ getFlashcards(): List&amp;lt;Flashcard&amp;gt;&lt;br/&gt;+ editFlashcard(Flashcard): void&lt;/p&gt;" style="verticalAlign=top;align=left;overflow=fill;fontSize=14;fontFamily=Helvetica;html=1;rounded=0;shadow=0;comic=0;labelBackgroundColor=none;strokeWidth=1;" parent="1" vertex="1">
          <mxGeometry x="1040" y="250" width="300" height="407" as="geometry" />
        </mxCell>
        <mxCell id="node5" value="&lt;p style=&quot;margin:0px;margin-top:4px;text-align:center;&quot;&gt;&lt;b&gt;Deck&lt;/b&gt;&lt;/p&gt;&lt;hr size=&quot;1&quot;/&gt;&lt;p style=&quot;margin:0 0 0 4px;line-height:1.6;&quot;&gt;- title: String&lt;br/&gt;- id: int&lt;br/&gt;- coverImage: Image&lt;br/&gt;- flashcards: List&amp;lt;Flashcard&amp;gt;&lt;/p&gt;&lt;hr size=&quot;1&quot;/&gt;&lt;p style=&quot;margin:0 0 0 4px;line-height:1.6;&quot;&gt;+ getTitle(): String&lt;br/&gt;+ setCoverImage(Image): void&lt;br/&gt;+ setTitle(String): void&lt;br/&gt;+ getCoverImage(): Image&lt;br/&gt;+ getFlashcards(): List&amp;lt;Flashcard&amp;gt;&lt;br/&gt;+ setId(int): void&lt;br/&gt;+ getId(): int&lt;br/&gt;+ setFlashcards(List&amp;lt;Flashcard&amp;gt;): void&lt;/p&gt;" style="verticalAlign=top;align=left;overflow=fill;fontSize=14;fontFamily=Helvetica;html=1;rounded=0;shadow=0;comic=0;labelBackgroundColor=none;strokeWidth=1;" parent="1" vertex="1">
          <mxGeometry x="555" y="553" width="255" height="326" as="geometry" />
        </mxCell>
        <mxCell id="node14" value="&lt;p style=&quot;margin:0px;margin-top:4px;text-align:center;&quot;&gt;&lt;i&gt;&amp;lt;&amp;lt;enumeration&amp;gt;&amp;gt;&lt;/i&gt;&lt;br/&gt;&lt;b&gt;Difficulty&lt;/b&gt;&lt;/p&gt;&lt;hr size=&quot;1&quot;/&gt;&lt;p style=&quot;margin:0 0 0 4px;line-height:1.6;&quot;&gt;+ Random: &lt;br/&gt;+ Easy: &lt;br/&gt;+ Hard: &lt;/p&gt;&lt;hr size=&quot;1&quot;/&gt;&lt;p style=&quot;margin:0 0 0 4px;line-height:1.6;&quot;&gt;+ valueOf(String): Difficulty&lt;br/&gt;+ values(): Difficulty[]&lt;/p&gt;" style="verticalAlign=top;align=left;overflow=fill;fontSize=14;fontFamily=Helvetica;html=1;rounded=0;shadow=0;comic=0;labelBackgroundColor=none;strokeWidth=1;" parent="1" vertex="1">
          <mxGeometry x="797" y="-333" width="181" height="123" as="geometry" />
        </mxCell>
        <mxCell id="node15" value="&lt;p style=&quot;margin:0px;margin-top:4px;text-align:center;&quot;&gt;&lt;b&gt;Flashcard&lt;/b&gt;&lt;/p&gt;&lt;hr size=&quot;1&quot;/&gt;&lt;p style=&quot;margin:0 0 0 4px;line-height:1.6;&quot;&gt;- id: int&lt;br/&gt;- answer: Answer&lt;br/&gt;- flashcardType: FlashcardType&lt;br/&gt;- question: String&lt;br/&gt;- possibleAnswers: List&amp;lt;Answer&amp;gt;&lt;br/&gt;- lastRevisionDate: Date&lt;br/&gt;- difficulty: Difficulty&lt;/p&gt;&lt;hr size=&quot;1&quot;/&gt;&lt;p style=&quot;margin:0 0 0 4px;line-height:1.6;&quot;&gt;+ getQuestion(): String&lt;br/&gt;+ setDifficulty(Difficulty): void&lt;br/&gt;+ setPossibleAnswers(List&amp;lt;Answer&amp;gt;): void&lt;br/&gt;+ setFlashcardType(FlashcardType): void&lt;br/&gt;+ getLastRevisionDate(): Date&lt;br/&gt;+ getId(): int&lt;br/&gt;+ checkAnswer(Answer): boolean&lt;br/&gt;+ setQuestion(String): void&lt;br/&gt;+ getDifficulty(): Difficulty&lt;br/&gt;+ setLastRevisionDate(Date): void&lt;br/&gt;+ getAnswer(): Answer&lt;br/&gt;+ setId(int): void&lt;br/&gt;+ setAnswer(Answer): void&lt;br/&gt;+ getFlashcardType(): FlashcardType&lt;br/&gt;+ getPossibleAnswers(): List&amp;lt;Answer&amp;gt;&lt;/p&gt;" style="verticalAlign=top;align=left;overflow=fill;fontSize=14;fontFamily=Helvetica;html=1;rounded=0;shadow=0;comic=0;labelBackgroundColor=none;strokeWidth=1;" parent="1" vertex="1">
          <mxGeometry x="473" y="-90" width="287" height="550" as="geometry" />
        </mxCell>
        <mxCell id="izyoNwwnXv2XFWCl0Jen-3" style="edgeStyle=orthogonalEdgeStyle;rounded=0;orthogonalLoop=1;jettySize=auto;html=1;endArrow=open;endFill=0;dashed=1;endSize=12;" edge="1" parent="1" source="node2" target="node15">
          <mxGeometry relative="1" as="geometry" />
        </mxCell>
        <mxCell id="node2" value="&lt;p style=&quot;margin:0px;margin-top:4px;text-align:center;&quot;&gt;&lt;i&gt;&amp;lt;&amp;lt;interface&amp;gt;&amp;gt;&lt;/i&gt;&lt;br/&gt;&lt;b&gt;FlashcardFactory&lt;/b&gt;&lt;/p&gt;&lt;hr size=&quot;1&quot;/&gt;&lt;p style=&quot;margin:0 0 0 4px;line-height:1.6;&quot;&gt;+ createFlashcard(String, Answer, Difficulty): Flashcard&lt;br/&gt;+ createAnswer(String): Answer&lt;/p&gt;" style="verticalAlign=top;align=left;overflow=fill;fontSize=14;fontFamily=Helvetica;html=1;rounded=0;shadow=0;comic=0;labelBackgroundColor=none;strokeWidth=1;" parent="1" vertex="1">
          <mxGeometry x="21" y="108" width="349" height="95" as="geometry" />
        </mxCell>
        <mxCell id="node13" value="&lt;p style=&quot;margin:0px;margin-top:4px;text-align:center;&quot;&gt;&lt;i&gt;&amp;lt;&amp;lt;enumeration&amp;gt;&amp;gt;&lt;/i&gt;&lt;br/&gt;&lt;b&gt;FlashcardType&lt;/b&gt;&lt;/p&gt;&lt;hr size=&quot;1&quot;/&gt;&lt;p style=&quot;margin:0 0 0 4px;line-height:1.6;&quot;&gt;+ TrueFalse: &lt;br/&gt;+ MultipleChoice: &lt;br/&gt;+ Text: &lt;/p&gt;&lt;hr size=&quot;1&quot;/&gt;&lt;p style=&quot;margin:0 0 0 4px;line-height:1.6;&quot;&gt;+ valueOf(String): FlashcardType&lt;br/&gt;+ values(): FlashcardType[]&lt;/p&gt;" style="verticalAlign=top;align=left;overflow=fill;fontSize=14;fontFamily=Helvetica;html=1;rounded=0;shadow=0;comic=0;labelBackgroundColor=none;strokeWidth=1;" parent="1" vertex="1">
          <mxGeometry x="309" y="-333" width="208" height="123" as="geometry" />
        </mxCell>
        <mxCell id="node6" value="&lt;p style=&quot;margin:0px;margin-top:4px;text-align:center;&quot;&gt;&lt;b&gt;FlipMode&lt;/b&gt;&lt;/p&gt;&lt;hr size=&quot;1&quot;/&gt;&lt;p style=&quot;margin:0 0 0 4px;line-height:1.6;&quot;&gt;+ getAnswers(): List&amp;lt;Answer&amp;gt;&lt;br/&gt;+ RevealAnswers(): List&amp;lt;Answer&amp;gt;&lt;br/&gt;+ getOptions(Flashcard): List&amp;lt;Answer&amp;gt;&lt;br/&gt;+ getQuestion(Flashcard): String&lt;/p&gt;" style="verticalAlign=top;align=left;overflow=fill;fontSize=14;fontFamily=Helvetica;html=1;rounded=0;shadow=0;comic=0;labelBackgroundColor=none;strokeWidth=1;" parent="1" vertex="1">
          <mxGeometry x="-161" y="978" width="242" height="130" as="geometry" />
        </mxCell>
        <mxCell id="node1" value="&lt;p style=&quot;margin:0px;margin-top:4px;text-align:center;&quot;&gt;&lt;i&gt;&amp;lt;&amp;lt;interface&amp;gt;&amp;gt;&lt;/i&gt;&lt;br/&gt;&lt;b&gt;Mode&lt;/b&gt;&lt;/p&gt;&lt;hr size=&quot;1&quot;/&gt;&lt;p style=&quot;margin:0 0 0 4px;line-height:1.6;&quot;&gt;+ getQuestion(Flashcard): String&lt;br/&gt;+ RevealAnswers(): List&amp;lt;Answer&amp;gt;&lt;br/&gt;+ getOptions(Flashcard): List&amp;lt;Answer&amp;gt;&lt;br/&gt;+ getAnswers(): List&amp;lt;Answer&amp;gt;&lt;/p&gt;" style="verticalAlign=top;align=left;overflow=fill;fontSize=14;fontFamily=Helvetica;html=1;rounded=0;shadow=0;comic=0;labelBackgroundColor=none;strokeWidth=1;" parent="1" vertex="1">
          <mxGeometry x="-25" y="673" width="242" height="150" as="geometry" />
        </mxCell>
        <mxCell id="node7" value="&lt;p style=&quot;margin:0px;margin-top:4px;text-align:center;&quot;&gt;&lt;b&gt;MultipleChoiceFlashcardFactory&lt;/b&gt;&lt;/p&gt;&lt;hr size=&quot;1&quot;/&gt;&lt;p style=&quot;margin:0 0 0 4px;line-height:1.6;&quot;&gt;+ createAnswer(String): Answer&lt;br/&gt;+ createFlashcard(String, Answer, Difficulty): Flashcard&lt;/p&gt;" style="verticalAlign=top;align=left;overflow=fill;fontSize=14;fontFamily=Helvetica;html=1;rounded=0;shadow=0;comic=0;labelBackgroundColor=none;strokeWidth=1;" parent="1" vertex="1">
          <mxGeometry x="-450" width="356" height="82" as="geometry" />
        </mxCell>
        <mxCell id="node12" value="&lt;p style=&quot;margin:0px;margin-top:4px;text-align:center;&quot;&gt;&lt;b&gt;Playlist&lt;/b&gt;&lt;/p&gt;&lt;hr size=&quot;1&quot;/&gt;&lt;p style=&quot;margin:0 0 0 4px;line-height:1.6;&quot;&gt;- flashcards: List&amp;lt;Flashcard&amp;gt;&lt;/p&gt;&lt;hr size=&quot;1&quot;/&gt;&lt;p style=&quot;margin:0 0 0 4px;line-height:1.6;&quot;&gt;+ size(): int&lt;br/&gt;+ get(int): Flashcard&lt;/p&gt;" style="verticalAlign=top;align=left;overflow=fill;fontSize=14;fontFamily=Helvetica;html=1;rounded=0;shadow=0;comic=0;labelBackgroundColor=none;strokeWidth=1;" parent="1" vertex="1">
          <mxGeometry x="348" y="580" width="189" height="120" as="geometry" />
        </mxCell>
        <mxCell id="node10" value="&lt;p style=&quot;margin:0px;margin-top:4px;text-align:center;&quot;&gt;&lt;b&gt;PlaylistBuilder&lt;/b&gt;&lt;/p&gt;&lt;hr size=&quot;1&quot;/&gt;&lt;p style=&quot;margin:0 0 0 4px;line-height:1.6;&quot;&gt;- difficulty: Difficulty&lt;br/&gt;- decks: List&amp;lt;Deck&amp;gt;&lt;br/&gt;- studyType: StudyType&lt;/p&gt;&lt;hr size=&quot;1&quot;/&gt;&lt;p style=&quot;margin:0 0 0 4px;line-height:1.6;&quot;&gt;+ build(): Playlist&lt;br/&gt;+ addDeck(Deck): void&lt;br/&gt;+ removeDeck(Deck): void&lt;br/&gt;+ setDifficulty(Difficulty): void&lt;br/&gt;+ setStudyType(StudyType): void&lt;/p&gt;" style="verticalAlign=top;align=left;overflow=fill;fontSize=14;fontFamily=Helvetica;html=1;rounded=0;shadow=0;comic=0;labelBackgroundColor=none;strokeWidth=1;" parent="1" vertex="1">
          <mxGeometry x="605" y="933" width="208" height="209" as="geometry" />
        </mxCell>
        <mxCell id="node9" value="&lt;p style=&quot;margin:0px;margin-top:4px;text-align:center;&quot;&gt;&lt;b&gt;QuizMode&lt;/b&gt;&lt;/p&gt;&lt;hr size=&quot;1&quot;/&gt;&lt;p style=&quot;margin:0 0 0 4px;line-height:1.6;&quot;&gt;+ getAnswers(): List&amp;lt;Answer&amp;gt;&lt;br/&gt;+ getQuestion(Flashcard): String&lt;br/&gt;+ getOptions(Flashcard): List&amp;lt;Answer&amp;gt;&lt;br/&gt;+ RevealAnswers(): List&amp;lt;Answer&amp;gt;&lt;/p&gt;" style="verticalAlign=top;align=left;overflow=fill;fontSize=14;fontFamily=Helvetica;html=1;rounded=0;shadow=0;comic=0;labelBackgroundColor=none;strokeWidth=1;" parent="1" vertex="1">
          <mxGeometry x="101" y="978" width="242" height="130" as="geometry" />
        </mxCell>
        <mxCell id="node16" value="&lt;p style=&quot;margin:0px;margin-top:4px;text-align:center;&quot;&gt;&lt;b&gt;Session&lt;/b&gt;&lt;/p&gt;&lt;hr size=&quot;1&quot;/&gt;&lt;p style=&quot;margin:0 0 0 4px;line-height:1.6;&quot;&gt;- playlist: Playlist&lt;br/&gt;- mode: Mode&lt;/p&gt;&lt;hr size=&quot;1&quot;/&gt;&lt;p style=&quot;margin:0 0 0 4px;line-height:1.6;&quot;&gt;+ start(): void&lt;/p&gt;" style="verticalAlign=top;align=left;overflow=fill;fontSize=14;fontFamily=Helvetica;html=1;rounded=0;shadow=0;comic=0;labelBackgroundColor=none;strokeWidth=1;" parent="1" vertex="1">
          <mxGeometry x="372" y="988" width="126" height="122" as="geometry" />
        </mxCell>
        <mxCell id="node11" value="&lt;p style=&quot;margin:0px;margin-top:4px;text-align:center;&quot;&gt;&lt;b&gt;TextFlashcardFactory&lt;/b&gt;&lt;/p&gt;&lt;hr size=&quot;1&quot;/&gt;&lt;p style=&quot;margin:0 0 0 4px;line-height:1.6;&quot;&gt;+ createFlashcard(String, Answer, Difficulty): Flashcard&lt;br/&gt;+ createAnswer(String): Answer&lt;/p&gt;" style="verticalAlign=top;align=left;overflow=fill;fontSize=14;fontFamily=Helvetica;html=1;rounded=0;shadow=0;comic=0;labelBackgroundColor=none;strokeWidth=1;" parent="1" vertex="1">
          <mxGeometry x="-450" y="220" width="356" height="82" as="geometry" />
        </mxCell>
        <mxCell id="node8" value="&lt;p style=&quot;margin:0px;margin-top:4px;text-align:center;&quot;&gt;&lt;b&gt;TrueFalseFlashcardFactory&lt;/b&gt;&lt;/p&gt;&lt;hr size=&quot;1&quot;/&gt;&lt;p style=&quot;margin:0 0 0 4px;line-height:1.6;&quot;&gt;+ createFlashcard(String, Answer, Difficulty): Flashcard&lt;br/&gt;+ createAnswer(String): Answer&lt;/p&gt;" style="verticalAlign=top;align=left;overflow=fill;fontSize=14;fontFamily=Helvetica;html=1;rounded=0;shadow=0;comic=0;labelBackgroundColor=none;strokeWidth=1;" parent="1" vertex="1">
          <mxGeometry x="-450" y="114.5" width="356" height="82" as="geometry" />
        </mxCell>
        <mxCell id="edge7" value="" style="html=1;rounded=1;edgeStyle=orthogonalEdgeStyle;dashed=0;startArrow=diamondThinstartSize=12;endArrow=openThin;endSize=12;strokeColor=#595959;exitX=0.500;exitY=0.000;exitDx=0;exitDy=0;" parent="1" source="node5" target="node15" edge="1">
          <mxGeometry width="50" height="50" relative="1" as="geometry">
            <Array as="points">
              <mxPoint x="673" y="520" />
              <mxPoint x="602" y="520" />
            </Array>
          </mxGeometry>
        </mxCell>
        <mxCell id="edge8" value="" style="html=1;rounded=1;edgeStyle=orthogonalEdgeStyle;dashed=0;startArrow=diamondThinstartSize=12;endArrow=openThin;endSize=12;strokeColor=#595959;exitX=0.658;exitY=0.000;exitDx=0;exitDy=0;entryX=0.500;entryY=1.000;entryDx=0;entryDy=0;" parent="1" source="node15" target="node0" edge="1">
          <mxGeometry width="50" height="50" relative="1" as="geometry">
            <Array as="points" />
          </mxGeometry>
        </mxCell>
        <mxCell id="edge12" value="" style="html=1;rounded=1;edgeStyle=orthogonalEdgeStyle;dashed=0;startArrow=diamondThinstartSize=12;endArrow=openThin;endSize=12;strokeColor=#595959;exitX=1.000;exitY=0.500;exitDx=0;exitDy=0;entryX=0.500;entryY=1.000;entryDx=0;entryDy=0;" parent="1" source="node15" target="node14" edge="1">
          <mxGeometry width="50" height="50" relative="1" as="geometry">
            <Array as="points">
              <mxPoint x="887" y="272" />
            </Array>
          </mxGeometry>
        </mxCell>
        <mxCell id="edge6" value="" style="html=1;rounded=1;edgeStyle=orthogonalEdgeStyle;dashed=0;startArrow=diamondThinstartSize=12;endArrow=openThin;endSize=12;strokeColor=#595959;exitX=0.029;exitY=0.000;exitDx=0;exitDy=0;entryX=0.824;entryY=1.000;entryDx=0;entryDy=0;" parent="1" source="node15" target="node13" edge="1">
          <mxGeometry width="50" height="50" relative="1" as="geometry">
            <Array as="points" />
          </mxGeometry>
        </mxCell>
        <mxCell id="edge3" value="" style="html=1;rounded=1;edgeStyle=orthogonalEdgeStyle;dashed=1;startArrow=none;endArrow=block;endSize=12;strokeColor=#008200;exitX=0.500;exitY=0.000;exitDx=0;exitDy=0;entryX=0.250;entryY=1.000;entryDx=0;entryDy=0;" parent="1" source="node6" target="node1" edge="1">
          <mxGeometry width="50" height="50" relative="1" as="geometry">
            <Array as="points">
              <mxPoint x="-40" y="912" />
              <mxPoint x="91" y="912" />
              <mxPoint x="91" y="902" />
              <mxPoint x="36" y="902" />
            </Array>
          </mxGeometry>
        </mxCell>
        <mxCell id="edge1" value="" style="html=1;rounded=1;edgeStyle=orthogonalEdgeStyle;dashed=1;startArrow=none;endArrow=block;endSize=12;strokeColor=#008200;" parent="1" source="node7" target="node2" edge="1">
          <mxGeometry width="50" height="50" relative="1" as="geometry">
            <Array as="points">
              <mxPoint x="182" y="41" />
            </Array>
          </mxGeometry>
        </mxCell>
        <mxCell id="edge10" value="" style="html=1;rounded=1;edgeStyle=orthogonalEdgeStyle;dashed=0;startArrow=diamondThinstartSize=12;endArrow=openThin;endSize=12;strokeColor=#595959;exitX=0.500;exitY=0.000;exitDx=0;exitDy=0;" parent="1" source="node12" target="node15" edge="1">
          <mxGeometry width="50" height="50" relative="1" as="geometry">
            <Array as="points">
              <mxPoint x="443" y="520" />
              <mxPoint x="602" y="520" />
            </Array>
          </mxGeometry>
        </mxCell>
        <mxCell id="edge14" value="" style="html=1;rounded=1;edgeStyle=orthogonalEdgeStyle;dashed=0;startArrow=diamondThinstartSize=12;endArrow=openThin;endSize=12;strokeColor=#595959;exitX=0.330;exitY=0.000;exitDx=0;exitDy=0;entryX=0.500;entryY=1.000;entryDx=0;entryDy=0;" parent="1" source="node10" target="node5" edge="1">
          <mxGeometry width="50" height="50" relative="1" as="geometry">
            <Array as="points" />
          </mxGeometry>
        </mxCell>
        <mxCell id="edge9" value="" style="html=1;rounded=1;edgeStyle=orthogonalEdgeStyle;dashed=0;startArrow=diamondThinstartSize=12;endArrow=openThin;endSize=12;strokeColor=#595959;exitX=1.000;exitY=0.500;exitDx=0;exitDy=0;entryX=0.500;entryY=1.000;entryDx=0;entryDy=0;jumpStyle=arc;jumpSize=18;" parent="1" source="node10" target="node14" edge="1">
          <mxGeometry width="50" height="50" relative="1" as="geometry">
            <Array as="points">
              <mxPoint x="910" y="1038" />
              <mxPoint x="910" y="272" />
              <mxPoint x="887" y="272" />
            </Array>
          </mxGeometry>
        </mxCell>
        <mxCell id="edge5" value="" style="html=1;rounded=1;edgeStyle=orthogonalEdgeStyle;dashed=1;startArrow=none;endArrow=openThin;endSize=12;strokeColor=#595959;exitX=0.000;exitY=0.129;exitDx=0;exitDy=0;" parent="1" source="node10" target="node12" edge="1">
          <mxGeometry width="50" height="50" relative="1" as="geometry">
            <Array as="points">
              <mxPoint x="440" y="960" />
            </Array>
          </mxGeometry>
        </mxCell>
        <mxCell id="edge4" value="" style="html=1;rounded=1;edgeStyle=orthogonalEdgeStyle;dashed=1;startArrow=none;endArrow=block;endSize=12;strokeColor=#008200;exitX=0.500;exitY=0.000;exitDx=0;exitDy=0;entryX=0.250;entryY=1.000;entryDx=0;entryDy=0;" parent="1" source="node9" target="node1" edge="1">
          <mxGeometry width="50" height="50" relative="1" as="geometry">
            <Array as="points">
              <mxPoint x="222" y="912" />
              <mxPoint x="91" y="912" />
              <mxPoint x="91" y="902" />
              <mxPoint x="36" y="902" />
            </Array>
          </mxGeometry>
        </mxCell>
        <mxCell id="edge13" value="" style="html=1;rounded=1;edgeStyle=orthogonalEdgeStyle;dashed=0;startArrow=diamondThinstartSize=12;endArrow=openThin;endSize=12;strokeColor=#595959;exitX=0.302;exitY=0.000;exitDx=0;exitDy=0;entryX=0.479;entryY=1.000;entryDx=0;entryDy=0;" parent="1" source="node16" target="node1" edge="1">
          <mxGeometry width="50" height="50" relative="1" as="geometry">
            <Array as="points">
              <mxPoint x="410" y="844" />
              <mxPoint x="91" y="844" />
            </Array>
          </mxGeometry>
        </mxCell>
        <mxCell id="edge11" value="" style="html=1;rounded=1;edgeStyle=orthogonalEdgeStyle;dashed=0;startArrow=diamondThinstartSize=12;endArrow=openThin;endSize=12;strokeColor=#595959;exitX=0.421;exitY=0.000;exitDx=0;exitDy=0;entryX=0.421;entryY=1.000;entryDx=0;entryDy=0;" parent="1" source="node16" target="node12" edge="1">
          <mxGeometry width="50" height="50" relative="1" as="geometry">
            <Array as="points" />
          </mxGeometry>
        </mxCell>
        <mxCell id="izyoNwwnXv2XFWCl0Jen-1" value="" style="html=1;rounded=1;edgeStyle=orthogonalEdgeStyle;dashed=1;startArrow=none;endArrow=block;endSize=12;strokeColor=#008200;" edge="1" parent="1" source="node8" target="node2">
          <mxGeometry width="50" height="50" relative="1" as="geometry">
            <Array as="points">
              <mxPoint x="-30" y="156" />
              <mxPoint x="-30" y="156" />
            </Array>
            <mxPoint x="-84" y="51" as="sourcePoint" />
            <mxPoint x="192" y="118" as="targetPoint" />
          </mxGeometry>
        </mxCell>
        <mxCell id="izyoNwwnXv2XFWCl0Jen-2" value="" style="html=1;rounded=1;edgeStyle=orthogonalEdgeStyle;dashed=1;startArrow=none;endArrow=block;endSize=12;strokeColor=#008200;" edge="1" parent="1" source="node11" target="node2">
          <mxGeometry width="50" height="50" relative="1" as="geometry">
            <Array as="points">
              <mxPoint x="216" y="270" />
            </Array>
            <mxPoint x="-60" y="310" as="sourcePoint" />
            <mxPoint x="216" y="377" as="targetPoint" />
          </mxGeometry>
        </mxCell>
      </root>
    </mxGraphModel>
  </diagram>
</mxfile>
